<?xml version="1.0" encoding="utf-8"?>
<!-- Generator: Adobe Illustrator 16.0.0, SVG Export Plug-In . SVG Version: 6.00 Build 0)  -->
<!DOCTYPE svg PUBLIC "-//W3C//DTD SVG 1.1//EN" "http://www.w3.org/Graphics/SVG/1.1/DTD/svg11.dtd">
<svg version="1.1" id="Layer_1" xmlns="http://www.w3.org/2000/svg" xmlns:xlink="http://www.w3.org/1999/xlink" x="0px" y="0px"
	 width="300px" height="30px" viewBox="0 0 300 30" enable-background="new 0 0 300 30" xml:space="preserve">
<g>
	<circle cx="15" cy="15.5" r="12.5"/>
</g>
<g>
	<path fill="#FFFFFF" stroke="#FFFFFF" stroke-width="2" stroke-miterlimit="10" d="M15.671,10.415v4.934h4.745v1.26h-4.745v4.977
		h-1.344v-4.977H9.582v-1.26h4.745v-4.934H15.671z"/>
</g>
<g>
	<g>
		<circle cx="45" cy="15.5" r="12.5"/>
	</g>
</g>
<g>
	<path fill="#FFFFFF" stroke="#FFFFFF" stroke-width="2" stroke-miterlimit="10" d="M50.249,14.475v1.051H39.751v-1.051H50.249z"/>
</g>
<g>
	<g>
		<g>
			<circle cx="75" cy="15.5" r="12.5"/>
		</g>
	</g>
</g>
<g>
	<path fill="#FCFCFC" stroke="#FFFFFF" stroke-width="2" stroke-miterlimit="10" d="M79.937,12.854l-0.759,1.528l-0.779,0.779
		l-1.507,0.728l-1.364,0.473v2.491h-1.066v-3.229l2.297-0.76l1.415-0.717l0.687-1.385v-1.385l-0.441-0.902l-2.369-1.179h-2.112
		l-2.379,1.179l-0.441,0.902v0.861h-1.066v-0.943l0.759-1.537l0.8-0.77l2.266-0.759h2.235l2.287,0.759l1.538,2.307V12.854z
		 M76.266,23.159L75.425,24h-0.861l-0.841-0.841v-0.861l0.841-0.841h0.861l0.841,0.841V23.159z"/>
</g>
<g>
	<g>
		<g>
			<g>
				<circle cx="105" cy="15.5" r="12.5"/>
			</g>
		</g>
	</g>
</g>
<g>
	<g>
		<g>
			<g>
				<circle cx="135" cy="15.5" r="12.5"/>
			</g>
		</g>
	</g>
</g>
<g>
	<g>
		<g>
			<g>
				<circle cx="165" cy="15.5" r="12.5"/>
			</g>
		</g>
	</g>
</g>
<g>
	<g>
		<g>
			<g>
				<circle cx="195" cy="15.5" r="12.5"/>
			</g>
		</g>
	</g>
</g>
<g>
	<g>
		<g>
			<g>
				<circle cx="225" cy="15.5" r="12.5"/>
			</g>
		</g>
	</g>
</g>
<g>
	<g>
		<g>
			<g>
				<circle cx="255" cy="15.5" r="12.5"/>
			</g>
		</g>
	</g>
</g>
<g>
	<g>
	</g>
	<g>
		<path fill="#FFFFFF" d="M102.791,11.198c-1.394-1.394-3.654-1.394-5.048,0c-1.394,1.395-1.394,3.654,0,5.05l2.209,2.207
			L105,13.407L102.791,11.198z"/>
	</g>
	<g>
		<path fill="#FFFFFF" d="M112.258,16.248c1.394-1.396,1.394-3.655,0-5.05c-1.394-1.394-3.655-1.394-5.048,0L105,13.407l5.049,5.048
			L112.258,16.248z"/>
	</g>
	<g>
		
			<rect x="101.43" y="14.885" transform="matrix(0.7071 -0.7071 0.7071 0.7071 17.7006 79.6476)" fill="#FFFFFF" width="7.14" height="7.141"/>
	</g>
</g>
<rect x="131" y="10" fill="#FFFFFF" width="13" height="9"/>
<polygon fill="#FFFFFF" points="127.2,13 125,15.216 125,19 130,19 130,13 "/>
<polygon points="127.266,14 126,14.99 126,16 129,16 129,14 "/>
<circle fill="#FFFFFF" cx="142.7" cy="21.3" r="1.7"/>
<circle fill="#FFFFFF" cx="128.3" cy="21.3" r="1.7"/>
<path fill="#FFFFFF" d="M170,14.822c0,1.785-2.398,3.232-5,3.232l0,0c-2.602,0-5-1.447-5-3.232v-3.59C160,9.447,162.398,8,165,8l0,0
	c2.602,0,5,1.447,5,3.232V14.822z"/>
<polygon fill="#FFFFFF" points="172.925,19.714 157.036,19.785 164.935,9.618 "/>
<path fill="#FFFFFF" d="M164.965,23.095c1.157,0,2.095-0.095,2.095-2.095h-4.188C162.871,23,163.809,23.095,164.965,23.095z"/>
<path fill="#FFFFFF" d="M201.94,17.922c0,2.303-0.853,4.078-1.904,4.078H189.87c-1.053,0-1.906-1.775-1.906-4.078L187,13.771
	c0-0.985,0.971-1.771,2.168-1.771h11.568c1.197,0,2.168,0.785,2.168,1.771L201.94,17.922z"/>
<path fill="#FFFFFF" d="M194.952,7c-3.193,0-5.784,2.59-5.784,5.784s2.591,5.784,5.784,5.784s5.784-2.59,5.784-5.784
	S198.146,7,194.952,7z M194.952,17.121c-2.396,0-4.338-1.942-4.338-4.337c0-2.395,1.942-4.337,4.338-4.337s4.338,1.942,4.338,4.337
	C199.29,15.179,197.348,17.121,194.952,17.121z"/>
<g>
	<path fill="#FFFFFF" d="M217,18.8c0,1.216,0.984,2.2,2.2,2.2h11.733c1.215,0,2.066-0.984,2.066-2.2V14h-16V18.8z"/>
	<path fill="#FFFFFF" d="M230.934,10H219.2c-1.216,0-2.2,1-2.2,2h16.133C233.133,11,232.148,10,230.934,10z"/>
	<rect x="217" y="12" width="16" height="2"/>
</g>
<g>
	<g>
		<path fill="#FCFCFC" d="M257,9.2c0,0.994-0.807,1.8-1.802,1.8h-0.396C253.807,11,253,10.194,253,9.2V7.8
			c0-0.994,0.807-1.8,1.802-1.8h0.396C256.193,6,257,6.806,257,7.8V9.2z"/>
		<path fill="#FCFCFC" d="M252.03,9.486c0.703,0.703,0.703,1.841,0,2.544l0,0c-0.703,0.703-1.843,0.703-2.546,0l-0.849-0.848
			c-0.702-0.703-0.702-1.842,0.001-2.545l0,0c0.702-0.703,1.842-0.703,2.545,0L252.03,9.486z"/>
		<path fill="#FCFCFC" d="M251,15.2c0,0.994-0.806,1.8-1.799,1.8h-1.402c-0.993,0-1.799-0.806-1.799-1.8v-0.4
			c0-0.994,0.806-1.8,1.799-1.8h1.402c0.993,0,1.799,0.806,1.799,1.8V15.2z"/>
		<path fill="#FCFCFC" d="M249.485,17.97c0.703-0.703,1.842-0.702,2.545,0.001l0,0c0.703,0.703,0.703,1.842,0,2.546l-0.848,0.849
			c-0.704,0.702-1.844,0.702-2.547-0.001l0,0c-0.702-0.703-0.702-1.844,0.001-2.545L249.485,17.97z"/>
		<path fill="#FCFCFC" d="M253,21c0-0.994,1.005-1.799,2-1.799l0,0c0.995,0,2,0.805,2,1.8v1.2c0,0.993-1.005,1.8-2.002,1.8l0,0
			c-0.993,0-1.998-0.808-1.998-1.8V21z"/>
		<path fill="#FCFCFC" d="M257.97,20.517c-0.703-0.704-0.702-1.843,0.001-2.546l0,0c0.703-0.703,1.842-0.703,2.546,0l0.848,0.849
			c0.703,0.703,0.703,1.843-0.001,2.546l0,0c-0.702,0.702-1.843,0.702-2.546-0.001L257.97,20.517z"/>
		<path fill="#FCFCFC" d="M261,17c-0.994,0-1.799-1.009-1.799-2l0,0c0-0.996,0.805-2,1.8-2h1.2c0.993,0,1.8,1.006,1.8,2l0,0
			c0,0.995-0.808,2-1.8,2H261z"/>
		<path fill="#FCFCFC" d="M260.516,12.03c-0.703,0.703-1.843,0.702-2.545-0.001l0,0c-0.704-0.703-0.703-1.84,0-2.545l0.849-0.847
			c0.703-0.703,1.842-0.704,2.546,0l0,0c0.702,0.702,0.701,1.842-0.001,2.545L260.516,12.03z"/>
		<circle fill="#FCFCFC" cx="255" cy="15" r="6"/>
	</g>
	<circle cx="255" cy="15" r="2.401"/>
</g>
<rect x="270" width="30" height="30"/>
<g>
	<g>
		<path d="M251.417,9.167c0.645,0,0.645-1,0-1S250.772,9.167,251.417,9.167L251.417,9.167z"/>
	</g>
</g>
<g>
	<g>
		<path d="M252.333,10.083c0.645,0,0.645-1,0-1S251.688,10.083,252.333,10.083L252.333,10.083z"/>
	</g>
</g>
<g>
	<g>
		<path d="M252.417,10c0.645,0,0.645-1,0-1S251.772,10,252.417,10L252.417,10z"/>
	</g>
</g>
<g>
	<g>
		<path d="M251.083,8.667c0.645,0,0.645-1,0-1S250.438,8.667,251.083,8.667L251.083,8.667z"/>
	</g>
</g>
<g>
	<g>
		<path d="M251.333,9.083c0.645,0,0.645-1,0-1S250.688,9.083,251.333,9.083L251.333,9.083z"/>
	</g>
</g>
<g>
	<g>
		<path d="M251.667,9.083c0.645,0,0.645-1,0-1S251.022,9.083,251.667,9.083L251.667,9.083z"/>
	</g>
</g>
<g>
	<g>
		<path d="M252.417,9.917c0.645,0,0.645-1,0-1S251.772,9.917,252.417,9.917L252.417,9.917z"/>
	</g>
</g>
<g>
	<g>
		<path d="M252.75,10c0.645,0,0.645-1,0-1S252.105,10,252.75,10L252.75,10z"/>
	</g>
</g>
<g>
	<g>
		<path d="M252.583,10c0.645,0,0.645-1,0-1S251.938,10,252.583,10L252.583,10z"/>
	</g>
</g>
<g>
	<g>
		<path d="M257.333,9.75c0.645,0,0.645-1,0-1S256.688,9.75,257.333,9.75L257.333,9.75z"/>
	</g>
</g>
<g>
	<g>
		<path d="M257.333,9.75c0.645,0,0.645-1,0-1S256.688,9.75,257.333,9.75L257.333,9.75z"/>
	</g>
</g>
<g>
	<g>
		<path d="M257.333,9.75c0.645,0,0.645-1,0-1S256.688,9.75,257.333,9.75L257.333,9.75z"/>
	</g>
</g>
<g>
	<g>
		<path d="M258.167,9c0.645,0,0.645-1,0-1S257.522,9,258.167,9L258.167,9z"/>
	</g>
</g>
<g>
	<g>
		<path d="M258.167,9c0.645,0,0.645-1,0-1S257.522,9,258.167,9L258.167,9z"/>
	</g>
</g>
<g>
	<g>
		<path d="M258.167,9c0.645,0,0.645-1,0-1S257.522,9,258.167,9L258.167,9z"/>
	</g>
</g>
<g>
	<g>
		<path d="M260.667,12.917c0.645,0,0.645-1,0-1S260.022,12.917,260.667,12.917L260.667,12.917z"/>
	</g>
</g>
<g>
	<g>
		<path d="M260.667,12.917c0.645,0,0.645-1,0-1S260.022,12.917,260.667,12.917L260.667,12.917z"/>
	</g>
</g>
<g>
	<g>
		<path d="M260.667,12.917c0.645,0,0.645-1,0-1S260.022,12.917,260.667,12.917L260.667,12.917z"/>
	</g>
</g>
<g>
	<g>
		<path d="M261.833,11.833c0.645,0,0.645-1,0-1S261.188,11.833,261.833,11.833L261.833,11.833z"/>
	</g>
</g>
<g>
	<g>
		<path d="M261.833,11.833c0.645,0,0.645-1,0-1S261.188,11.833,261.833,11.833L261.833,11.833z"/>
	</g>
</g>
<g>
	<g>
		<path d="M261.833,11.833c0.645,0,0.645-1,0-1S261.188,11.833,261.833,11.833L261.833,11.833z"/>
	</g>
</g>
<g>
	<g>
		<path d="M260.583,17.917c0.645,0,0.645-1,0-1S259.938,17.917,260.583,17.917L260.583,17.917z"/>
	</g>
</g>
<g>
	<g>
		<path d="M260.583,17.917c0.645,0,0.645-1,0-1S259.938,17.917,260.583,17.917L260.583,17.917z"/>
	</g>
</g>
<g>
	<g>
		<path d="M260.583,17.917c0.645,0,0.645-1,0-1S259.938,17.917,260.583,17.917L260.583,17.917z"/>
	</g>
</g>
<g>
	<g>
		<path d="M261.583,18.25c0.645,0,0.645-1,0-1S260.938,18.25,261.583,18.25L261.583,18.25z"/>
	</g>
</g>
<g>
	<g>
		<path d="M261.583,19.167c0.645,0,0.645-1,0-1S260.938,19.167,261.583,19.167L261.583,19.167z"/>
	</g>
</g>
<g>
	<g>
		<path d="M261.583,19.167c0.645,0,0.645-1,0-1S260.938,19.167,261.583,19.167L261.583,19.167z"/>
	</g>
</g>
<g>
	<g>
		<path d="M261.583,19.083c0.645,0,0.645-1,0-1S260.938,19.083,261.583,19.083L261.583,19.083z"/>
	</g>
</g>
<g>
	<g>
		<path d="M257.25,21.083c0.645,0,0.645-1,0-1S256.605,21.083,257.25,21.083L257.25,21.083z"/>
	</g>
</g>
<g>
	<g>
		<path d="M257.25,21.083c0.645,0,0.645-1,0-1S256.605,21.083,257.25,21.083L257.25,21.083z"/>
	</g>
</g>
<g>
	<g>
		<path d="M257.25,21.083c0.645,0,0.645-1,0-1S256.605,21.083,257.25,21.083L257.25,21.083z"/>
	</g>
</g>
<g>
	<g>
		<path d="M258.417,22.25c0.645,0,0.645-1,0-1S257.772,22.25,258.417,22.25L258.417,22.25z"/>
	</g>
</g>
<g>
	<g>
		<path d="M258.417,22.25c0.645,0,0.645-1,0-1S257.772,22.25,258.417,22.25L258.417,22.25z"/>
	</g>
</g>
<g>
	<g>
		<path d="M258.417,22.25c0.645,0,0.645-1,0-1S257.772,22.25,258.417,22.25L258.417,22.25z"/>
	</g>
</g>
<g>
	<g>
		<path d="M252.5,21.083c0.645,0,0.645-1,0-1S251.855,21.083,252.5,21.083L252.5,21.083z"/>
	</g>
</g>
<g>
	<g>
		<path d="M252.5,21.083c0.645,0,0.645-1,0-1S251.855,21.083,252.5,21.083L252.5,21.083z"/>
	</g>
</g>
<g>
	<g>
		<path d="M252.5,21.083c0.645,0,0.645-1,0-1S251.855,21.083,252.5,21.083L252.5,21.083z"/>
	</g>
</g>
<g>
	<g>
		<path d="M251.583,22.25c0.645,0,0.645-1,0-1S250.938,22.25,251.583,22.25L251.583,22.25z"/>
	</g>
</g>
<g>
	<g>
		<path d="M251.5,22.25c0.645,0,0.645-1,0-1S250.855,22.25,251.5,22.25L251.5,22.25z"/>
	</g>
</g>
<g>
	<g>
		<path d="M252.583,21.25c0.645,0,0.645-1,0-1S251.938,21.25,252.583,21.25L252.583,21.25z"/>
	</g>
</g>
<g>
	<g>
		<path d="M249.333,18c0.645,0,0.645-1,0-1S248.688,18,249.333,18L249.333,18z"/>
	</g>
</g>
<g>
	<g>
		<path d="M249.333,18c0.645,0,0.645-1,0-1S248.688,18,249.333,18L249.333,18z"/>
	</g>
</g>
<g>
	<g>
		<path d="M249.333,17.917c0.645,0,0.645-1,0-1S248.688,17.917,249.333,17.917L249.333,17.917z"/>
	</g>
</g>
<g>
	<g>
		<path d="M249.25,17.75c0.645,0,0.645-1,0-1S248.605,17.75,249.25,17.75L249.25,17.75z"/>
	</g>
</g>
<g>
	<g>
		<path d="M249.333,13.333c0.645,0,0.645-1,0-1S248.688,13.333,249.333,13.333L249.333,13.333z"/>
	</g>
</g>
<g>
	<g>
		<path d="M249.25,13.25c0.645,0,0.645-1,0-1S248.605,13.25,249.25,13.25L249.25,13.25z"/>
	</g>
</g>
<g>
	<g>
		<path d="M249.25,13.25c0.645,0,0.645-1,0-1S248.605,13.25,249.25,13.25L249.25,13.25z"/>
	</g>
</g>
<g>
	<g>
		<path d="M248.583,12c0.645,0,0.645-1,0-1S247.938,12,248.583,12L248.583,12z"/>
	</g>
</g>
<g>
	<g>
		<path d="M248.583,12c0.645,0,0.645-1,0-1S247.938,12,248.583,12L248.583,12z"/>
	</g>
</g>
<g>
	<g>
		<path d="M249.5,13.167c0.645,0,0.645-1,0-1S248.855,13.167,249.5,13.167L249.5,13.167z"/>
	</g>
</g>
<g>
	<g>
		<path d="M249.5,13.167c0.645,0,0.645-1,0-1S248.855,13.167,249.5,13.167L249.5,13.167z"/>
	</g>
</g>
<g>
	<g>
		<path d="M254.333,6.75c0.645,0,0.645-1,0-1S253.688,6.75,254.333,6.75L254.333,6.75z"/>
	</g>
</g>
<g>
	<g>
		<path d="M254.333,6.75c0.645,0,0.645-1,0-1S253.688,6.75,254.333,6.75L254.333,6.75z"/>
	</g>
</g>
<g>
	<g>
		<path d="M254.583,6.833c0.645,0,0.645-1,0-1S253.938,6.833,254.583,6.833L254.583,6.833z"/>
	</g>
</g>
<g>
	<g>
		<path d="M255.333,6.917c0.645,0,0.645-1,0-1S254.688,6.917,255.333,6.917L255.333,6.917z"/>
	</g>
</g>
<g>
	<g>
		<path d="M255.333,6.917c0.645,0,0.645-1,0-1S254.688,6.917,255.333,6.917L255.333,6.917z"/>
	</g>
</g>
<g>
	<g>
		<path d="M255.25,6.917c0.645,0,0.645-1,0-1S254.605,6.917,255.25,6.917L255.25,6.917z"/>
	</g>
</g>
<g>
	<g>
		<path d="M254.25,6.833c0.645,0,0.645-1,0-1S253.605,6.833,254.25,6.833L254.25,6.833z"/>
	</g>
</g>
<g>
	<g>
		<path d="M254.25,6.833c0.645,0,0.645-1,0-1S253.605,6.833,254.25,6.833L254.25,6.833z"/>
	</g>
</g>
<g>
	<g>
		<path d="M255,6.917c0.645,0,0.645-1,0-1S254.355,6.917,255,6.917L255,6.917z"/>
	</g>
</g>
<g>
	<g>
		<path d="M255.167,6.917c0.645,0,0.645-1,0-1S254.522,6.917,255.167,6.917L255.167,6.917z"/>
	</g>
</g>
<g>
	<g>
		<path d="M248.583,9.25c0.645,0,0.645-1,0-1S247.938,9.25,248.583,9.25L248.583,9.25z"/>
	</g>
</g>
<g>
	<g>
		<path d="M248.5,9.25c0.645,0,0.645-1,0-1S247.855,9.25,248.5,9.25L248.5,9.25z"/>
	</g>
</g>
<g>
	<g>
		<path d="M248.333,9.667c0.645,0,0.645-1,0-1S247.688,9.667,248.333,9.667L248.333,9.667z"/>
	</g>
</g>
<g>
	<g>
		<path d="M249.5,8.583c0.645,0,0.645-1,0-1S248.855,8.583,249.5,8.583L249.5,8.583z"/>
	</g>
</g>
<g>
	<g>
		<path d="M249.5,7.583c-0.027,0-0.056,0-0.083,0c-0.645,0-0.645,1,0,1c0.027,0,0.056,0,0.083,0
			C250.145,8.583,250.145,7.583,249.5,7.583L249.5,7.583z"/>
	</g>
</g>
<g>
	<g>
		<path d="M248.5,9.083c0.645,0,0.645-1,0-1S247.855,9.083,248.5,9.083L248.5,9.083z"/>
	</g>
</g>
<g>
	<g>
		<path d="M248.5,9.083c0.645,0,0.645-1,0-1S247.855,9.083,248.5,9.083L248.5,9.083z"/>
	</g>
</g>
<g>
	<g>
		<path d="M248.5,9.083c0.645,0,0.645-1,0-1S247.855,9.083,248.5,9.083L248.5,9.083z"/>
	</g>
</g>
<g>
	<g>
		<path d="M248.5,9.083c0.645,0,0.645-1,0-1S247.855,9.083,248.5,9.083L248.5,9.083z"/>
	</g>
</g>
<g>
	<g>
		<path d="M246.25,15.083c0.645,0,0.645-1,0-1S245.605,15.083,246.25,15.083L246.25,15.083z"/>
	</g>
</g>
<g>
	<g>
		<path d="M246.25,15c0.645,0,0.645-1,0-1S245.605,15,246.25,15L246.25,15z"/>
	</g>
</g>
<g>
	<g>
		<path d="M245.75,14.5c0,0.028,0,0.056,0,0.083c0,0.645,1,0.645,1,0c0-0.028,0-0.056,0-0.083
			C246.75,13.855,245.75,13.855,245.75,14.5L245.75,14.5z"/>
	</g>
</g>
<g>
	<g>
		<path d="M246.25,15.583c0.645,0,0.645-1,0-1S245.605,15.583,246.25,15.583L246.25,15.583z"/>
	</g>
</g>
<g>
	<g>
		<path d="M246.25,16c0.645,0,0.645-1,0-1S245.605,16,246.25,16L246.25,16z"/>
	</g>
</g>
<g>
	<g>
		<path d="M246.25,16c0.645,0,0.645-1,0-1S245.605,16,246.25,16L246.25,16z"/>
	</g>
</g>
<g>
	<g>
		<path d="M246.502,15.932c0.295-0.194,0.407-0.414,0.415-0.765c0.016-0.645-0.984-0.644-1,0c0.027-0.033,0.054-0.065,0.081-0.098
			C245.463,15.422,245.963,16.289,246.502,15.932L246.502,15.932z"/>
	</g>
</g>
<g>
	<g>
		<path d="M245.833,13.75c0,0.556,0,1.111,0,1.667c0,0.645,1,0.645,1,0c0-0.556,0-1.111,0-1.667
			C246.833,13.105,245.833,13.105,245.833,13.75L245.833,13.75z"/>
	</g>
</g>
<g>
	<g>
		<path d="M247.748,21.432c0.383,0.205,0.67,0.453,0.903,0.82c0.344,0.544,1.209,0.042,0.863-0.504
			c-0.321-0.509-0.731-0.896-1.263-1.18C247.684,20.265,247.179,21.128,247.748,21.432L247.748,21.432z"/>
	</g>
</g>
<g>
	<g>
		<path d="M253.667,24.417c0.778-0.007,1.555-0.078,2.333-0.084c0.645-0.005,0.646-1.005,0-1c-0.778,0.006-1.555,0.077-2.333,0.084
			C253.022,23.422,253.021,24.422,253.667,24.417L253.667,24.417z"/>
	</g>
</g>
<g>
	<g>
		<path d="M261.665,20.318c-0.728,0.382-1.35,0.923-2,1.417c-0.507,0.385-0.01,1.254,0.504,0.863c0.651-0.494,1.273-1.035,2-1.417
			C262.74,20.882,262.235,20.019,261.665,20.318L261.665,20.318z"/>
	</g>
</g>
<g>
	<g>
		<path d="M263.583,14.25c0,0.806,0,1.611,0,2.417c0,0.645,1,0.645,1,0c0-0.806,0-1.611,0-2.417
			C264.583,13.605,263.583,13.605,263.583,14.25L263.583,14.25z"/>
	</g>
</g>
<g>
	<g>
		<path d="M263.351,14.117c-0.249,1.157-0.028,2.302,0.25,3.433c0.154,0.626,1.119,0.36,0.965-0.266
			c-0.233-0.947-0.459-1.929-0.25-2.901C264.45,13.754,263.486,13.487,263.351,14.117L263.351,14.117z"/>
	</g>
</g>
<g>
	<g>
		<path d="M260.229,8.604c0.624,0.806,1.228,1.609,2.102,2.162c0.546,0.346,1.048-0.52,0.504-0.863
			c-0.79-0.5-1.334-1.277-1.898-2.005C260.542,7.387,259.84,8.101,260.229,8.604L260.229,8.604z"/>
	</g>
</g>
<text transform="matrix(1 0 0 1 277 23)" fill="#FFFFFF" stroke="#FFFFFF" stroke-miterlimit="10" font-family="'GillSansMT'" font-size="23">X</text>
<g>
	<g>
		<path fill="#FFFFFF" d="M276.625,8.063c0.645,0,0.645-1,0-1S275.98,8.063,276.625,8.063L276.625,8.063z"/>
	</g>
</g>
<g>
	<g>
		<path fill="#FFFFFF" d="M276.625,7.25c0.645,0,0.645-1,0-1S275.98,7.25,276.625,7.25L276.625,7.25z"/>
	</g>
</g>
<g>
	<g>
		<path fill="#FFFFFF" d="M276.5,8.438c0.645,0,0.645-1,0-1S275.855,8.438,276.5,8.438L276.5,8.438z"/>
	</g>
</g>
</svg>
