<?xml version="1.0" encoding="utf-8"?>
<!DOCTYPE svg PUBLIC "-//W3C//DTD SVG 1.1//EN" "http://www.w3.org/Graphics/SVG/1.1/DTD/svg11.dtd">
<svg version="1.1" id="Layer_1" xmlns="http://www.w3.org/2000/svg" xmlns:xlink="http://www.w3.org/1999/xlink" x="0px" y="0px"
	 width="200px" height="50px" viewBox="0 0 200 50" enable-background="new 0 0 200 50" xml:space="preserve">
<polygon fill="none" stroke="#000000" stroke-miterlimit="10" points="43.186,24.5 38.471,29.041 39.618,35.485 33.131,36.384 
	30.275,42.276 24.5,39.187 18.724,42.276 15.868,36.384 9.382,35.485 10.529,29.041 5.814,24.5 10.529,19.959 9.383,13.515 
	15.869,12.617 18.725,6.724 24.5,9.814 30.276,6.724 33.132,12.617 39.618,13.515 38.471,19.96 "/>
<text transform="matrix(1 0 0 1 11.6274 27.8369)" font-family="'KoreanPRJT-R'" font-size="9.5349">SALE</text>
<text transform="matrix(1 0 0 1 62.4497 23)"><tspan x="0" y="0" font-family="'KoreanPRJT-R'" font-size="9">SOLD</tspan><tspan x="2.758" y="10.8" font-family="'KoreanPRJT-R'" font-size="9">OUT</tspan></text>
<text transform="matrix(1 0 0 1 113 29)" font-family="'KoreanPRJT-R'" font-size="10">NEW</text>
<text transform="matrix(1 0 0 1 161 29)" font-family="'KoreanPRJT-R'" font-size="8">EVENT</text>
<polygon fill="none" stroke="#000000" stroke-width="2" stroke-miterlimit="10" points="47,24.5 42.1,30.219 42.703,37.728 
	35.374,39.469 31.455,45.904 24.5,43 17.545,45.904 13.627,39.469 6.296,37.727 6.9,30.219 2,24.5 6.9,18.781 6.297,11.273 
	13.626,9.531 17.545,3.096 24.5,6 31.455,3.096 35.374,9.531 42.704,11.273 42.1,18.781 "/>
<polygon fill="none" stroke="#000000" stroke-miterlimit="10" points="93.186,24.5 88.471,29.041 89.617,35.485 83.131,36.384 
	80.275,42.276 74.5,39.187 68.724,42.276 65.868,36.383 59.383,35.485 60.529,29.041 55.814,24.5 60.529,19.96 59.383,13.515 
	65.869,12.617 68.725,6.725 74.5,9.814 80.275,6.725 83.131,12.618 89.617,13.516 88.471,19.96 "/>
<polygon fill="none" stroke="#000000" stroke-width="2" stroke-miterlimit="10" points="97,24.5 92.1,30.219 92.703,37.728 
	85.374,39.469 81.455,45.904 74.5,43 67.545,45.904 63.627,39.469 56.296,37.727 56.9,30.219 52,24.5 56.9,18.781 56.297,11.272 
	63.626,9.531 67.545,3.096 74.5,6 81.455,3.096 85.374,9.531 92.704,11.273 92.1,18.781 "/>
<polygon fill="none" stroke="#000000" stroke-miterlimit="10" points="143.186,24.5 138.471,29.04 139.617,35.485 133.131,36.384 
	130.276,42.276 124.5,39.187 118.724,42.276 115.868,36.383 109.383,35.485 110.529,29.04 105.814,24.5 110.529,19.96 
	109.383,13.515 115.869,12.617 118.726,6.725 124.5,9.814 130.276,6.725 133.132,12.618 139.617,13.515 138.471,19.96 "/>
<polygon fill="none" stroke="#000000" stroke-width="2" stroke-miterlimit="10" points="147,24.5 142.1,30.22 142.703,37.728 
	135.373,39.469 131.454,45.904 124.5,43 117.546,45.904 113.626,39.469 106.297,37.727 106.9,30.22 102,24.5 106.9,18.781 
	106.297,11.272 113.627,9.531 117.546,3.096 124.5,6 131.455,3.096 135.374,9.531 142.703,11.273 142.1,18.781 "/>
<polygon fill="none" stroke="#000000" stroke-miterlimit="10" points="193.186,25.5 188.471,30.04 189.617,36.485 183.131,37.384 
	180.276,43.276 174.5,40.187 168.724,43.276 165.868,37.383 159.383,36.485 160.529,30.04 155.814,25.5 160.529,20.96 
	159.383,14.515 165.869,13.617 168.726,7.725 174.5,10.814 180.276,7.725 183.132,13.618 189.617,14.516 188.471,20.96 "/>
<polygon fill="none" stroke="#000000" stroke-width="2" stroke-miterlimit="10" points="197,25.5 192.1,31.22 192.703,38.728 
	185.373,40.469 181.454,46.904 174.5,44 167.546,46.904 163.626,40.469 156.297,38.727 156.9,31.22 152,25.5 156.9,19.781 
	156.297,12.272 163.626,10.531 167.546,4.096 174.5,7 181.455,4.096 185.374,10.531 192.703,12.273 192.1,19.781 "/>
</svg>
